<svg width="405" height="53" viewBox="0 0 405 53" fill="none" xmlns="http://www.w3.org/2000/svg">
<path d="M27.7752 0.220525C11.6948 0.220525 0 11.2467 0 26.3894C0 41.7525 11.4025 52.9993 27.1174 52.9993C35.0114 52.9993 43.7095 48.9563 49.4107 42.7081L39.6163 32.1965C36.254 35.7984 31.6492 38.0771 27.9945 38.0771C21.8547 38.0771 17.3961 33.0786 17.3961 26.1688C17.3961 19.3326 21.8547 14.4076 27.9945 14.4076C31.9415 14.4076 36.5464 17.1274 39.6163 21.3173L49.4107 9.62954C44.148 3.89592 35.5962 0.220525 27.7752 0.220525Z" fill="#5E72E4"/>
<path d="M72.9083 11.4672C59.1668 11.4672 50.3226 19.5531 50.3226 32.123C50.3226 44.6929 59.1668 52.8522 72.9083 52.8522C86.6497 52.8522 95.4939 44.6929 95.4939 32.123C95.4939 19.5531 86.6497 11.4672 72.9083 11.4672ZM72.9083 24.5517C76.5629 24.5517 78.9019 27.639 78.9019 32.3435C78.9019 37.048 76.5629 40.1354 72.9083 40.1354C69.2536 40.1354 66.9147 37.048 66.9147 32.3435C66.9147 27.639 69.2536 24.5517 72.9083 24.5517Z" fill="#5E72E4"/>
<path d="M135.873 21.6849V12.0553H99.1805V24.4047H115.115L98.4496 42.6346V52.2642H136.604V39.9148H119.208L135.873 21.6849Z" fill="#5E72E4"/>
<path d="M161.628 11.3202C155.707 11.3202 148.691 12.7169 141.893 15.2162L145.548 26.2424C150.079 24.5517 154.684 23.6696 157.681 23.6696C161.701 23.6696 163.821 25.2867 163.894 28.08H154.757C144.597 28.2271 139.262 32.417 139.262 40.3559C139.262 48.0007 144.159 52.9993 152.638 52.9993C157.754 52.9993 161.555 51.1616 163.894 47.9272V52.2642H180.047V26.2424C180.047 16.7598 173.177 11.3202 161.628 11.3202ZM158.339 42.4876C156 42.4876 154.684 41.1645 154.684 38.9592C154.684 36.8275 155.927 35.7249 158.193 35.7249H163.894V39.4003C162.578 41.385 160.459 42.4876 158.339 42.4876Z" fill="#5E72E4"/>
<path d="M224.142 0C210.839 0 202.214 6.4687 202.214 16.7598C202.214 34.8428 228.747 30.4323 228.747 37.1215C228.747 38.9592 227.138 39.7678 224.653 39.7678C219.464 39.7678 210.4 36.1659 205.138 31.7554L198.852 44.5458C205.649 49.7649 215.59 52.7787 224.507 52.7787C236.056 52.7787 246.069 47.7067 246.069 36.2394C246.069 17.5684 219.537 21.6113 219.537 15.1426C219.537 13.599 220.779 13.0109 222.68 13.0109C227.138 13.0109 235.106 16.1718 240.295 19.0386L246.435 6.10116C240.661 2.42576 232.255 0 224.142 0Z" fill="#5E72E4"/>
<path d="M276.554 39.1798C275.019 39.7678 273.411 40.2089 272.461 40.2089C270.487 40.2824 269.244 38.9592 269.244 36.8275V24.6987H278.6V14.2605H269.244V3.01383H252.872V14.2605H247.39V24.6987H252.872V39.3268C252.872 47.7067 258.792 53.0728 267.929 52.9993C272.168 52.9993 276.7 52.0437 279.331 50.5L276.554 39.1798Z" fill="#5E72E4"/>
<path d="M304.107 11.4672C290.365 11.4672 281.521 19.5531 281.521 32.123C281.521 44.6929 290.365 52.8522 304.107 52.8522C317.848 52.8522 326.693 44.6929 326.693 32.123C326.693 19.5531 317.848 11.4672 304.107 11.4672ZM304.107 24.5517C307.761 24.5517 310.1 27.639 310.1 32.3435C310.1 37.048 307.761 40.1354 304.107 40.1354C300.452 40.1354 298.113 37.048 298.113 32.3435C298.113 27.639 300.452 24.5517 304.107 24.5517Z" fill="#5E72E4"/>
<path d="M348.287 12.0553H331.841V52.2642H348.287V33.0786C348.287 27.786 353.111 25.1397 360.493 26.2424V11.3202C355.304 11.3202 351.064 13.746 348.287 17.9359V12.0553Z" fill="#5E72E4"/>
<path d="M383.666 11.4672C370.802 11.4672 362.323 19.6266 362.323 32.3435C362.323 44.7664 370.436 52.8522 384.105 52.8522C391.852 52.8522 397.992 50.206 402.232 45.5014L393.68 37.048C391.195 39.4003 388.344 40.6499 385.566 40.6499C382.35 40.6499 380.011 39.0327 378.915 35.8719H404.936C405.813 21.0233 397.627 11.4672 383.666 11.4672ZM378.55 28.2271C379.207 24.8457 380.962 22.4934 383.812 22.4934C386.663 22.4934 388.709 24.9192 388.49 28.2271H378.55Z" fill="#5E72E4"/>
</svg>
