<?xml version="1.0" encoding="iso-8859-1"?>
<!-- Generator: Adobe Illustrator 19.0.0, SVG Export Plug-In . SVG Version: 6.00 Build 0)  -->
<svg xmlns="http://www.w3.org/2000/svg" xmlns:xlink="http://www.w3.org/1999/xlink" version="1.1" id="Layer_1" x="0px" y="0px" viewBox="0 0 512.001 512.001" style="enable-background:new 0 0 512.001 512.001;" xml:space="preserve">
<circle style="fill:#FFDF47;" cx="255.997" cy="255.996" r="255.996"/>
<path style="fill:#FEC000;" d="M512,256.001c0-34.27-6.751-66.959-18.969-96.833L384.901,51.035l-68.626,16.666l-13.452-19.725  l-148.209,57.077h-39.64c-23.699,0-43.089,19.39-43.089,43.09v225.344c0,14.266,7.032,26.963,17.794,34.817l93.033,93.033  c23.22,6.927,47.816,10.665,73.288,10.665C397.385,512,512,397.385,512,256.001z"/>
<rect x="162.948" y="77.601" transform="matrix(-0.9718 0.236 -0.236 -0.9718 596.0664 229.996)" style="fill:#004DB1;" width="242.643" height="146.134"/>
<rect x="98.065" y="86.033" transform="matrix(-0.9332 0.3594 -0.3594 -0.9332 478.1513 230.3483)" style="fill:#0088FF;" width="239.198" height="147.174"/>
<polygon style="fill:#006EF5;" points="355.714,185.316 302.823,47.976 256,66.007 256,223.716 "/>
<path style="fill:#E67500;" d="M394.841,416.575H114.974c-23.699,0-43.09-19.39-43.09-43.09V148.141  c0-23.699,19.39-43.09,43.09-43.09h279.867c23.699,0,43.09,19.39,43.09,43.09v225.344  C437.931,397.184,418.54,416.575,394.841,416.575z"/>
<path style="fill:#C06200;" d="M394.841,105.053H256v311.522h138.841c23.699,0,43.09-19.39,43.09-43.09V148.141  C437.931,124.442,418.54,105.053,394.841,105.053z"/>
<path style="fill:#990011;" d="M321.064,210.97c-27.529,0-49.844,22.316-49.844,49.844c0,27.527,22.316,49.843,49.844,49.843  h125.308V210.97L321.064,210.97L321.064,210.97z"/>
<circle style="fill:#AEADB3;" cx="320.393" cy="260.813" r="29.372"/>
<g>
</g>
<g>
</g>
<g>
</g>
<g>
</g>
<g>
</g>
<g>
</g>
<g>
</g>
<g>
</g>
<g>
</g>
<g>
</g>
<g>
</g>
<g>
</g>
<g>
</g>
<g>
</g>
<g>
</g>
</svg>
