<svg width="252" height="262" viewBox="0 0 252 262" fill="none" xmlns="http://www.w3.org/2000/svg">
<path fill-rule="evenodd" clip-rule="evenodd" d="M250.115 58.2642C250.208 58.6076 250.255 58.9616 250.256 59.3173V114.599C250.256 115.309 250.069 116.006 249.713 116.62C249.357 117.234 248.846 117.743 248.23 118.096L201.817 144.81V197.759C201.817 199.2 201.051 200.53 199.801 201.256L102.917 257.011C102.695 257.137 102.453 257.218 102.211 257.304C102.12 257.334 102.035 257.389 101.939 257.414C101.262 257.593 100.55 257.593 99.8726 257.414C99.7618 257.384 99.661 257.324 99.5551 257.283C99.3334 257.203 99.1015 257.132 98.8898 257.011L2.02608 201.256C1.41073 200.902 0.899442 200.393 0.543738 199.779C0.188034 199.165 0.000487566 198.469 0 197.759L0 31.9131C0 31.5503 0.0504 31.1976 0.14112 30.855C0.17136 30.7391 0.24192 30.6333 0.28224 30.5174C0.35784 30.3058 0.4284 30.0892 0.53928 29.8927C0.61488 29.7617 0.72576 29.6559 0.81648 29.5349C0.9324 29.3737 1.03824 29.2074 1.17432 29.0664C1.29024 28.9505 1.44144 28.8648 1.57248 28.7641C1.71864 28.6431 1.84968 28.5121 2.016 28.4164H2.02104L50.4554 0.538589C51.0687 0.185798 51.7639 0.00012207 52.4714 0.00012207C53.179 0.00012207 53.8742 0.185798 54.4874 0.538589L102.922 28.4164H102.932C103.093 28.5172 103.229 28.6431 103.375 28.759C103.506 28.8598 103.653 28.9505 103.769 29.0613C103.91 29.2074 104.01 29.3737 104.131 29.5349C104.217 29.6559 104.333 29.7617 104.404 29.8927C104.52 30.0942 104.585 30.3058 104.666 30.5174C104.706 30.6333 104.777 30.7391 104.807 30.8601C104.9 31.2034 104.947 31.5574 104.948 31.9131V135.499L145.308 112.266V59.3122C145.308 58.9596 145.359 58.6018 145.449 58.2642C145.485 58.1433 145.55 58.0375 145.59 57.9216C145.671 57.71 145.742 57.4934 145.853 57.2969C145.928 57.1659 146.039 57.0601 146.125 56.9391C146.246 56.7779 146.346 56.6116 146.488 56.4706C146.604 56.3547 146.75 56.269 146.881 56.1682C147.032 56.0473 147.163 55.9163 147.324 55.8206H147.329L195.769 27.9428C196.382 27.5895 197.077 27.4035 197.785 27.4035C198.492 27.4035 199.188 27.5895 199.801 27.9428L248.235 55.8206C248.406 55.9214 248.538 56.0473 248.689 56.1632C248.815 56.264 248.961 56.3547 249.077 56.4655C249.218 56.6116 249.319 56.7779 249.44 56.9391C249.53 57.0601 249.641 57.1659 249.712 57.2969C249.828 57.4934 249.893 57.71 249.974 57.9216C250.019 58.0375 250.085 58.1433 250.115 58.2642ZM242.182 112.266V66.2956L225.233 76.05L201.817 89.5279V135.499L242.187 112.266H242.182ZM193.748 195.426V149.425L170.715 162.576L104.943 200.102V246.536L193.748 195.426ZM8.07408 38.8914V195.426L96.8688 246.531V200.107L50.4806 173.862L50.4655 173.852L50.4454 173.842C50.2891 173.751 50.1581 173.62 50.0119 173.509C49.8859 173.408 49.7398 173.328 49.6289 173.217L49.6188 173.202C49.4878 173.076 49.397 172.919 49.2862 172.778C49.1854 172.642 49.0644 172.526 48.9838 172.385L48.9787 172.37C48.888 172.219 48.8326 172.038 48.767 171.866C48.7015 171.715 48.6158 171.574 48.5755 171.413V171.408C48.5251 171.216 48.515 171.015 48.4949 170.818C48.4747 170.667 48.4344 170.516 48.4344 170.365V170.355V62.1237L25.0236 48.6408L8.07408 38.8964V38.8914ZM52.4765 8.69082L12.1212 31.9131L52.4664 55.1354L92.8166 31.9081L52.4664 8.69082H52.4765ZM73.463 153.617L96.8738 140.144V38.8914L79.9243 48.6458L56.5085 62.1237V163.377L73.463 153.617ZM197.785 36.095L157.434 59.3173L197.785 82.5396L238.13 59.3122L197.785 36.095ZM193.748 89.5279L170.332 76.05L153.382 66.2956V112.266L176.793 125.739L193.748 135.499V89.5279ZM100.901 193.124L160.086 159.346L189.67 142.467L149.35 119.26L102.927 145.979L60.6161 170.33L100.901 193.124Z" fill="url(#paint0_linear)"/>
<path fill-rule="evenodd" clip-rule="evenodd" d="M250.115 58.2642C250.208 58.6076 250.255 58.9616 250.256 59.3173V114.599C250.256 115.309 250.069 116.006 249.713 116.62C249.357 117.234 248.846 117.743 248.23 118.096L201.817 144.81V197.759C201.817 199.2 201.051 200.53 199.801 201.256L102.917 257.011C102.695 257.137 102.453 257.218 102.211 257.304C102.12 257.334 102.035 257.389 101.939 257.414C101.262 257.593 100.55 257.593 99.8726 257.414C99.7618 257.384 99.661 257.324 99.5551 257.283C99.3334 257.203 99.1015 257.132 98.8898 257.011L2.02608 201.256C1.41073 200.902 0.899442 200.393 0.543738 199.779C0.188034 199.165 0.000487566 198.469 0 197.759L0 31.9131C0 31.5503 0.0504 31.1976 0.14112 30.855C0.17136 30.7391 0.24192 30.6333 0.28224 30.5174C0.35784 30.3058 0.4284 30.0892 0.53928 29.8927C0.61488 29.7617 0.72576 29.6559 0.81648 29.5349C0.9324 29.3737 1.03824 29.2074 1.17432 29.0664C1.29024 28.9505 1.44144 28.8648 1.57248 28.7641C1.71864 28.6431 1.84968 28.5121 2.016 28.4164H2.02104L50.4554 0.538589C51.0687 0.185798 51.7639 0.00012207 52.4714 0.00012207C53.179 0.00012207 53.8742 0.185798 54.4874 0.538589L102.922 28.4164H102.932C103.093 28.5172 103.229 28.6431 103.375 28.759C103.506 28.8598 103.653 28.9505 103.769 29.0613C103.91 29.2074 104.01 29.3737 104.131 29.5349C104.217 29.6559 104.333 29.7617 104.404 29.8927C104.52 30.0942 104.585 30.3058 104.666 30.5174C104.706 30.6333 104.777 30.7391 104.807 30.8601C104.9 31.2034 104.947 31.5574 104.948 31.9131V135.499L145.308 112.266V59.3122C145.308 58.9596 145.359 58.6018 145.449 58.2642C145.485 58.1433 145.55 58.0375 145.59 57.9216C145.671 57.71 145.742 57.4934 145.853 57.2969C145.928 57.1659 146.039 57.0601 146.125 56.9391C146.246 56.7779 146.346 56.6116 146.488 56.4706C146.604 56.3547 146.75 56.269 146.881 56.1682C147.032 56.0473 147.163 55.9163 147.324 55.8206H147.329L195.769 27.9428C196.382 27.5895 197.077 27.4035 197.785 27.4035C198.492 27.4035 199.188 27.5895 199.801 27.9428L248.235 55.8206C248.406 55.9214 248.538 56.0473 248.689 56.1632C248.815 56.264 248.961 56.3547 249.077 56.4655C249.218 56.6116 249.319 56.7779 249.44 56.9391C249.53 57.0601 249.641 57.1659 249.712 57.2969C249.828 57.4934 249.893 57.71 249.974 57.9216C250.019 58.0375 250.085 58.1433 250.115 58.2642ZM242.182 112.266V66.2956L225.233 76.05L201.817 89.5279V135.499L242.187 112.266H242.182ZM193.748 195.426V149.425L170.715 162.576L104.943 200.102V246.536L193.748 195.426ZM8.07408 38.8914V195.426L96.8688 246.531V200.107L50.4806 173.862L50.4655 173.852L50.4454 173.842C50.2891 173.751 50.1581 173.62 50.0119 173.509C49.8859 173.408 49.7398 173.328 49.6289 173.217L49.6188 173.202C49.4878 173.076 49.397 172.919 49.2862 172.778C49.1854 172.642 49.0644 172.526 48.9838 172.385L48.9787 172.37C48.888 172.219 48.8326 172.038 48.767 171.866C48.7015 171.715 48.6158 171.574 48.5755 171.413V171.408C48.5251 171.216 48.515 171.015 48.4949 170.818C48.4747 170.667 48.4344 170.516 48.4344 170.365V170.355V62.1237L25.0236 48.6408L8.07408 38.8964V38.8914ZM52.4765 8.69082L12.1212 31.9131L52.4664 55.1354L92.8166 31.9081L52.4664 8.69082H52.4765ZM73.463 153.617L96.8738 140.144V38.8914L79.9243 48.6458L56.5085 62.1237V163.377L73.463 153.617ZM197.785 36.095L157.434 59.3173L197.785 82.5396L238.13 59.3122L197.785 36.095ZM193.748 89.5279L170.332 76.05L153.382 66.2956V112.266L176.793 125.739L193.748 135.499V89.5279ZM100.901 193.124L160.086 159.346L189.67 142.467L149.35 119.26L102.927 145.979L60.6161 170.33L100.901 193.124Z" fill="url(#paint1_linear)"/>
<defs>
<linearGradient id="paint0_linear" x1="250" y1="8.84572e-06" x2="2.40665e-05" y2="258" gradientUnits="userSpaceOnUse">
<stop stop-color="#9D33C3"/>
<stop offset="0.285533" stop-color="#AC31BD"/>
<stop offset="0.454292" stop-color="#D33D92"/>
<stop offset="0.670942" stop-color="#FA5249"/>
<stop offset="0.841982" stop-color="#FF7E45"/>
<stop offset="1" stop-color="#FFCC53"/>
</linearGradient>
<linearGradient id="paint1_linear" x1="-8.11087e-06" y1="6.12776e-06" x2="83" y2="84.5" gradientUnits="userSpaceOnUse">
<stop stop-color="#3E6BC9"/>
<stop offset="1" stop-color="#D33F85" stop-opacity="0"/>
</linearGradient>
</defs>
</svg>
